<svg width="1028" height="1162" viewBox="0 0 1028 1162" fill="none" xmlns="http://www.w3.org/2000/svg">
<path d="M503.082 170.953C503.966 173.168 509.854 173.906 523.692 173.168C534.585 172.922 543.418 172.922 543.418 173.414C543.418 174.152 534.291 184.485 522.809 196.54C511.621 208.596 502.199 219.913 502.199 221.39C502.199 223.85 509.56 224.588 528.991 224.588C549.012 224.588 555.489 223.85 554.311 221.39C553.723 219.421 546.951 218.683 531.936 218.929C516.331 219.421 511.326 218.683 512.798 216.715C513.976 214.993 523.397 205.152 533.702 194.572C544.007 183.993 552.25 173.66 552.25 171.691C552.25 168.739 547.245 168.001 526.93 168.001C508.088 168.001 501.905 168.739 503.082 170.953Z" fill="white"/>
<path d="M510.442 231.234C512.209 231.727 515.742 231.727 517.803 231.234C519.569 230.496 518.097 230.004 513.975 230.004C509.854 230.004 508.382 230.496 510.442 231.234Z" fill="white"/>
<path d="M524.871 242.548C523.693 249.683 521.926 259.032 521.043 263.461C519.277 271.088 519.571 271.334 528.698 271.334C535.47 271.334 537.825 270.35 536.647 267.89C535.764 265.921 533.998 256.572 532.82 246.977C531.937 237.382 529.876 229.509 528.698 229.509C527.52 229.509 525.754 235.414 524.871 242.548Z" fill="white"/>
<path d="M525.754 303.811C525.754 321.525 526.932 335.303 528.404 335.303C531.937 335.303 531.937 280.684 528.404 276.01C526.932 273.795 525.754 284.129 525.754 303.811Z" fill="white"/>
<path d="M478.939 392.874L430.948 433.223L432.126 450.691C432.715 460.286 432.715 468.159 431.832 468.159C431.243 468.159 426.238 463.976 420.938 458.81L411.222 449.707L400.623 458.564L390.024 467.175L390.319 565.587C390.319 631.523 389.435 662.522 387.374 660.062C385.608 657.848 384.43 622.174 384.43 566.571C384.43 517.119 384.43 475.786 384.43 474.31C384.43 473.079 377.953 477.508 369.709 484.151L354.988 496.206V566.571V636.689L382.369 659.57L409.75 682.205L421.233 672.364C433.893 661.538 432.126 658.586 419.172 669.165L410.928 675.808V565.341V454.627L421.233 463.238L431.537 471.849V585.269L431.832 698.689L480.116 739.038L528.696 779.387L575.803 740.022L622.91 700.657V680.975V661.292L634.686 671.38L646.758 681.221L672.961 658.832L699.459 636.443V565.095V493.746L686.21 482.921C678.849 477.016 672.961 473.079 672.961 474.31C672.961 475.786 672.961 517.365 672.961 567.063C672.961 627.094 672.078 657.848 670.017 658.832C667.956 659.816 667.073 630.293 667.073 563.864L667.367 467.175L657.062 458.564L646.463 449.953L634.686 459.548L622.91 469.143V449.461V429.778L608.189 417.723C600.239 411.08 593.468 406.651 593.468 407.881C593.468 409.358 593.468 480.952 593.468 567.063C593.468 671.626 592.585 724.276 590.524 725.26C588.463 726.244 587.579 674.824 587.579 563.864L587.874 400.747L572.27 387.707C564.026 380.572 556.665 375.159 556.077 375.652C555.488 376.144 555.193 461.762 555.193 566.079C555.193 694.014 554.31 756.26 552.249 757.244C550.188 758.228 549.305 697.459 549.305 563.864L549.599 369.009L539.883 360.644C534.878 356.215 529.873 352.525 528.696 352.525C527.812 352.525 505.436 370.731 478.939 392.874ZM546.361 565.587V760.688L539 767.085C534.878 770.53 530.756 773.236 530.168 773.236C529.284 773.236 528.696 679.499 528.696 564.849V356.461L537.528 363.596L546.361 370.731V565.587ZM525.751 565.833V772.006L481.294 734.855L437.131 697.459L437.72 565.833L438.309 433.961L481.294 397.302C504.848 377.128 524.574 360.398 525.163 360.152C525.457 360.152 525.751 452.659 525.751 565.833ZM584.635 565.341L584.341 728.212L572.858 737.562L561.082 747.157V565.341V383.524L572.858 393.12L584.635 402.715V565.341ZM619.965 565.341V698.443L608.189 708.038L596.412 717.633V565.341V413.048L608.189 422.643L619.965 432.238V565.341ZM407.984 565.833V675.562L400.623 669.903L393.263 664.245V567.063C393.263 470.373 393.263 470.127 400.034 463.238C403.567 459.302 406.806 456.103 407.395 456.103C407.689 455.857 407.984 505.309 407.984 565.833ZM646.463 565.587V675.316L636.159 667.689L625.854 660.062V566.079V472.095L635.275 463.976C640.28 459.548 644.991 455.857 645.58 455.857C646.169 455.857 646.463 505.309 646.463 565.587ZM661.184 566.571C661.184 661.046 660.89 664.245 655.296 668.673C649.407 673.102 649.407 672.856 649.407 565.095C649.702 457.333 649.702 457.087 655.296 462.992C660.89 468.405 661.184 472.833 661.184 566.571ZM381.486 565.833V653.665L371.181 645.3L360.877 636.935V567.063V496.944L370.592 487.841C375.598 482.675 380.308 478.246 380.897 478.246C381.192 478 381.486 517.611 381.486 565.833ZM687.682 490.302L696.22 497.682L696.514 566.079V634.475L686.504 642.594L676.2 650.959V566.817C676.2 520.809 676.788 482.921 677.672 482.921C678.26 482.921 682.971 486.119 687.682 490.302Z" fill="white"/>
<path d="M420.939 582.563C420.939 620.451 421.528 635.705 421.823 616.269C422.412 596.832 422.412 565.833 421.823 547.38C421.528 528.928 420.939 544.674 420.939 582.563Z" fill="white"/>
<path d="M194.531 579.121C189.821 595.605 187.465 600.033 178.927 606.184C171.272 611.843 169.506 614.303 172.155 616.517C174.511 618.485 178.338 617.009 186.582 610.366C195.414 602.985 201.892 600.525 218.968 597.327C233.983 594.374 239.872 592.406 237.811 590.684C234.867 588.224 222.501 589.7 201.303 595.112C196.592 596.343 196.592 595.358 201.597 580.351C205.719 567.803 206.308 563.621 203.364 561.652C200.714 559.93 198.653 564.113 194.531 579.121Z" fill="white"/>
<path d="M850.79 567.312C849.906 569.527 850.495 576.662 851.967 583.058C853.734 589.455 854.911 595.114 854.617 595.114C854.323 595.36 847.257 594.622 839.013 593.146C828.708 591.423 821.937 591.423 818.403 593.146C814.282 595.114 817.815 596.098 834.302 598.558L855.206 601.511L858.15 613.566C859.917 620.455 861.389 628.082 861.389 631.034C861.389 634.971 862.272 635.463 865.511 633.249C868.749 631.034 868.749 628.328 865.805 617.257C863.744 609.876 861.094 602.495 859.622 600.527C857.856 598.066 858.15 597.82 861.683 600.034C864.038 601.757 872.577 603.971 880.526 605.447C892.008 607.661 896.13 607.415 899.369 604.955C902.607 602.003 900.252 601.265 885.826 599.788C876.11 599.05 866.983 597.328 865.216 596.59C863.45 595.606 860.505 588.225 858.739 580.352C855.206 564.114 853.439 561.408 850.79 567.312Z" fill="white"/>
<path d="M861.984 569.033C861.984 572.477 862.573 573.707 863.456 571.985C864.045 570.509 864.045 567.556 863.456 565.834C862.573 564.358 861.984 565.588 861.984 569.033Z" fill="white"/>
<path d="M873.458 570.506C873.458 573.212 874.341 573.95 875.225 571.982C876.108 570.26 875.813 568.045 874.93 567.307C874.047 566.323 873.164 567.799 873.458 570.506Z" fill="white"/>
<path d="M210.725 615.529C210.725 617.005 212.197 618.728 213.669 619.466C215.435 620.204 221.913 627.585 228.684 635.704C240.167 649.973 240.755 650.465 246.349 646.283C249.294 644.069 251.943 641.362 251.943 640.624C251.943 639.64 242.816 633.243 231.334 626.108C220.146 618.974 210.725 614.299 210.725 615.529Z" fill="white"/>
<path d="M823.997 626.848L802.799 639.887L809.276 644.808L815.753 649.975L831.357 632.506C839.896 622.911 846.373 614.792 846.078 614.546C845.49 614.3 835.774 619.959 823.997 626.848Z" fill="white"/>
<path d="M873.758 628.081C873.758 631.526 874.347 632.756 875.23 631.034C875.819 629.558 875.819 626.605 875.23 624.883C874.347 623.407 873.758 624.637 873.758 628.081Z" fill="white"/>
<path d="M248.996 646.778C248.996 648.254 311.707 701.396 388.256 765.118L527.517 880.998L666.482 765.118C800.443 653.174 819.58 636.936 801.621 650.222C793.966 655.881 791.022 656.373 764.818 656.373C741.265 656.373 734.199 657.357 724.483 661.785C718.006 664.492 683.559 691.555 647.934 721.571C612.309 751.586 576.979 779.88 569.619 784.554C549.892 796.61 531.638 799.562 509.557 794.149C492.775 790.213 489.537 787.753 415.343 726.737C327.606 654.158 326.723 653.666 288.154 655.881C266.367 657.111 264.6 656.619 257.24 650.714C252.529 647.27 248.996 645.547 248.996 646.778ZM332.022 666.214C337.322 668.674 375.596 698.444 416.815 732.642C497.486 799.562 500.724 801.284 530.166 801.038C556.959 800.546 563.73 796.364 642.046 731.412C682.675 697.952 720.067 668.674 725.366 666.46C740.676 659.817 763.052 657.111 773.062 660.801L781.6 663.754L655 769.546L528.694 875.339L402.094 769.546C332.611 711.237 276.671 663.016 277.849 662.031C284.032 657.111 315.829 659.571 332.022 666.214Z" fill="white"/>
</svg>
